<svg xmlns="http://www.w3.org/2000/svg" width="1280" height="740" viewBox="0 0 1280 740">
  <defs>
    <marker id="arrow" viewBox="0 0 10 10" refX="8" refY="5" markerWidth="6" markerHeight="6" orient="auto-start-reverse">
      <path d="M 0 0 L 10 5 L 0 10 z" fill="#bbbfc4" />
    </marker>
  </defs>

  <line x1="600" y1="98" x2="600" y2="148" stroke="#bbbfc4" stroke-width="1.5" marker-end="url(#arrow)" />

  <polyline points="600,274 600,305 240,305 240,338" stroke="#bbbfc4" stroke-width="1.5" fill="none" marker-end="url(#arrow)" />
  <line x1="600" y1="274" x2="600" y2="338" stroke="#bbbfc4" stroke-width="1.5" marker-end="url(#arrow)" />
  <polyline points="600,274 600,305 960,305 960,338" stroke="#bbbfc4" stroke-width="1.5" fill="none" marker-end="url(#arrow)" />

  <line x1="240" y1="464" x2="240" y2="538" stroke="#bbbfc4" stroke-width="1.5" marker-end="url(#arrow)" />
  <line x1="600" y1="464" x2="600" y2="538" stroke="#bbbfc4" stroke-width="1.5" marker-end="url(#arrow)" />
  <line x1="960" y1="464" x2="960" y2="538" stroke="#bbbfc4" stroke-width="1.5" marker-end="url(#arrow)" />

  <line x1="700" y1="582" x2="724" y2="582" stroke="#bbbfc4" stroke-width="1.5" stroke-dasharray="4,4" />
  <line x1="1060" y1="582" x2="1084" y2="582" stroke="#bbbfc4" stroke-width="1.5" stroke-dasharray="4,4" />

  <rect x="550" y="114" width="100" height="20" fill="#ffffff" />
  <text x="600" y="128" text-anchor="middle" font-size="12" fill="#8f959e">HTTP / HTTPS</text>

  <rect x="204" y="492" width="72" height="20" fill="#ffffff" />
  <text x="240" y="506" text-anchor="middle" font-size="12" fill="#8f959e">异步解耦</text>

  <rect x="564" y="492" width="72" height="20" fill="#ffffff" />
  <text x="600" y="506" text-anchor="middle" font-size="12" fill="#8f959e">同步读写</text>

  <rect x="924" y="492" width="72" height="20" fill="#ffffff" />
  <text x="960" y="506" text-anchor="middle" font-size="12" fill="#8f959e">批量写入</text>


  <g id="entrance-node">
    <rect x="440" y="50" width="320" height="48" rx="24" fill="#f0f4fc" stroke="#5178c6" stroke-width="1.5" />
    <text x="600" y="79" text-anchor="middle" font-size="15" font-weight="bold" fill="#1f2329">入口峰值流量 (QPS: [10,000])</text>
  </g>


  <g id="access-node">
    <rect x="500" y="150" width="200" height="124" rx="6" fill="#ffffff" stroke="#bbbfc4" stroke-width="1.5" />
    <rect x="501" y="151" width="198" height="39" rx="5" fill="#f0f4fc" />
    <rect x="501" y="170" width="198" height="20" fill="#f0f4fc" />
    <line x1="501" y1="190" x2="699" y2="190" stroke="#dee0e3" stroke-width="1" />

    <text x="516" y="176" font-size="14" font-weight="bold" fill="#1f2329">接入层 (API Gateway)</text>

    <text x="516" y="216" font-size="13" fill="#8f959e">需求:</text>
    <text x="684" y="216" text-anchor="end" font-size="13" fill="#1f2329">[10,000] QPS</text>

    <text x="516" y="238" font-size="13" fill="#8f959e">能力:</text>
    <text x="684" y="238" text-anchor="end" font-size="13" fill="#1f2329">[15,000] QPS</text>

    <text x="516" y="260" font-size="13" fill="#8f959e">利用率:</text>
    <text x="684" y="260" text-anchor="end" font-size="13" fill="#1f2329">[66]%</text>
  </g>


  <g id="service-a">
    <rect x="140" y="340" width="200" height="124" rx="6" fill="#ffffff" stroke="#bbbfc4" stroke-width="1.5" />
    <rect x="141" y="341" width="198" height="39" rx="5" fill="#f5f5f5" />
    <rect x="141" y="360" width="198" height="20" fill="#f5f5f5" />
    <line x1="141" y1="380" x2="339" y2="380" stroke="#dee0e3" stroke-width="1" />

    <text x="156" y="366" font-size="14" font-weight="bold" fill="#1f2329">业务服务 A (查询)</text>

    <text x="156" y="406" font-size="13" fill="#8f959e">需求:</text>
    <text x="324" y="406" text-anchor="end" font-size="13" fill="#1f2329">[3,000] QPS</text>

    <text x="156" y="428" font-size="13" fill="#8f959e">能力:</text>
    <text x="324" y="428" text-anchor="end" font-size="13" fill="#1f2329">[5,000] QPS</text>

    <text x="156" y="450" font-size="13" fill="#8f959e">利用率:</text>
    <text x="324" y="450" text-anchor="end" font-size="13" fill="#1f2329">[60]%</text>
  </g>

  <g id="service-b-bottleneck">
    <rect x="500" y="340" width="200" height="124" rx="6" fill="#ffffff" stroke="#d25d5a" stroke-width="2" />
    <rect x="501" y="341" width="198" height="39" rx="5" fill="#fee3e2" />
    <rect x="501" y="360" width="198" height="20" fill="#fee3e2" />
    <line x1="501" y1="380" x2="699" y2="380" stroke="#d25d5a" stroke-width="1" />

    <text x="516" y="366" font-size="14" font-weight="bold" fill="#1f2329">核心服务 B (交易)</text>

    <rect x="628" y="350" width="56" height="20" rx="4" fill="#d25d5a" />
    <text x="656" y="364" text-anchor="middle" font-size="11" font-weight="bold" fill="#ffffff">首个瓶颈</text>

    <text x="516" y="406" font-size="13" fill="#8f959e">需求:</text>
    <text x="684" y="406" text-anchor="end" font-size="13" fill="#1f2329">[5,000] QPS</text>

    <text x="516" y="428" font-size="13" fill="#8f959e">能力:</text>
    <text x="684" y="428" text-anchor="end" font-size="13" font-weight="bold" fill="#1f2329">[4,500] QPS</text>

    <text x="516" y="450" font-size="13" fill="#8f959e">利用率:</text>
    <text x="684" y="450" text-anchor="end" font-size="13" font-weight="bold" fill="#d25d5a">[111]%</text>
  </g>

  <g id="service-c">
    <rect x="860" y="340" width="200" height="124" rx="6" fill="#ffffff" stroke="#bbbfc4" stroke-width="1.5" />
    <rect x="861" y="341" width="198" height="39" rx="5" fill="#f5f5f5" />
    <rect x="861" y="360" width="198" height="20" fill="#f5f5f5" />
    <line x1="861" y1="380" x2="1059" y2="380" stroke="#dee0e3" stroke-width="1" />

    <text x="876" y="366" font-size="14" font-weight="bold" fill="#1f2329">聚合服务 C (报表)</text>

    <text x="876" y="406" font-size="13" fill="#8f959e">需求:</text>
    <text x="1044" y="406" text-anchor="end" font-size="13" fill="#1f2329">[2,000] QPS</text>

    <text x="876" y="428" font-size="13" fill="#8f959e">能力:</text>
    <text x="1044" y="428" text-anchor="end" font-size="13" fill="#1f2329">[4,000] QPS</text>

    <text x="876" y="450" font-size="13" fill="#8f959e">利用率:</text>
    <text x="1044" y="450" text-anchor="end" font-size="13" fill="#1f2329">[50]%</text>
  </g>


  <g id="storage-mq">
    <rect x="140" y="540" width="200" height="124" rx="6" fill="#ffffff" stroke="#d4b45b" stroke-width="2" />
    <rect x="141" y="541" width="198" height="39" rx="5" fill="#fef1ce" />
    <rect x="141" y="560" width="198" height="20" fill="#fef1ce" />
    <line x1="141" y1="580" x2="339" y2="580" stroke="#d4b45b" stroke-width="1" />

    <text x="156" y="566" font-size="14" font-weight="bold" fill="#1f2329">消息队列 (Kafka)</text>

    <rect x="270" y="550" width="56" height="20" rx="4" fill="#d4b45b" />
    <text x="298" y="564" text-anchor="middle" font-size="11" font-weight="bold" fill="#ffffff">降载排队</text>

    <text x="156" y="606" font-size="13" fill="#8f959e">需求:</text>
    <text x="324" y="606" text-anchor="end" font-size="13" fill="#1f2329">[3,000] TPS</text>

    <text x="156" y="628" font-size="13" fill="#8f959e">能力:</text>
    <text x="324" y="628" text-anchor="end" font-size="13" fill="#1f2329">[2,000] TPS</text>

    <text x="156" y="650" font-size="13" fill="#8f959e">利用率:</text>
    <text x="324" y="650" text-anchor="end" font-size="13" font-weight="bold" fill="#d48e5b">[100]%</text>
  </g>

  <g id="storage-db">
    <rect x="500" y="540" width="200" height="124" rx="6" fill="#ffffff" stroke="#bbbfc4" stroke-width="1.5" />
    <rect x="501" y="541" width="198" height="39" rx="5" fill="#f5f5f5" />
    <rect x="501" y="560" width="198" height="20" fill="#f5f5f5" />
    <line x1="501" y1="580" x2="699" y2="580" stroke="#dee0e3" stroke-width="1" />

    <text x="516" y="566" font-size="14" font-weight="bold" fill="#1f2329">核心数据库 (MySQL)</text>

    <text x="516" y="606" font-size="13" fill="#8f959e">需求:</text>
    <text x="684" y="606" text-anchor="end" font-size="13" fill="#1f2329">[4,500] TPS</text>

    <text x="516" y="628" font-size="13" fill="#8f959e">能力:</text>
    <text x="684" y="628" text-anchor="end" font-size="13" fill="#1f2329">[8,000] TPS</text>

    <text x="516" y="650" font-size="13" fill="#8f959e">利用率:</text>
    <text x="684" y="650" text-anchor="end" font-size="13" fill="#1f2329">[56]%</text>
  </g>

  <g id="storage-oss">
    <rect x="860" y="540" width="200" height="124" rx="6" fill="#ffffff" stroke="#bbbfc4" stroke-width="1.5" />
    <rect x="861" y="541" width="198" height="39" rx="5" fill="#f5f5f5" />
    <rect x="861" y="560" width="198" height="20" fill="#f5f5f5" />
    <line x1="861" y1="580" x2="1059" y2="580" stroke="#dee0e3" stroke-width="1" />

    <text x="876" y="566" font-size="14" font-weight="bold" fill="#1f2329">对象存储 (S3)</text>

    <text x="876" y="606" font-size="13" fill="#8f959e">需求:</text>
    <text x="1044" y="606" text-anchor="end" font-size="13" fill="#1f2329">[500] TPS</text>

    <text x="876" y="628" font-size="13" fill="#8f959e">能力:</text>
    <text x="1044" y="628" text-anchor="end" font-size="13" fill="#1f2329">[2,000] TPS</text>

    <text x="876" y="650" font-size="13" fill="#8f959e">利用率:</text>
    <text x="1044" y="650" text-anchor="end" font-size="13" fill="#1f2329">[25]%</text>
  </g>


  <g id="note-db">
    <rect x="724" y="550" width="110" height="64" rx="4" fill="#f5f5f5" stroke="#bbbfc4" stroke-width="1.5" stroke-dasharray="4,4" />
    <text x="736" y="574" font-size="12" fill="#8f959e">日增: <tspan fill="#1f2329">[50] GB</tspan></text>
    <text x="736" y="598" font-size="12" fill="#8f959e">保留: <tspan fill="#1f2329">[30] 天</tspan></text>
  </g>

  <g id="note-oss">
    <rect x="1084" y="550" width="110" height="64" rx="4" fill="#f5f5f5" stroke="#bbbfc4" stroke-width="1.5" stroke-dasharray="4,4" />
    <text x="1096" y="574" font-size="12" fill="#8f959e">日增: <tspan fill="#1f2329">[1.2] TB</tspan></text>
    <text x="1096" y="598" font-size="12" fill="#8f959e">保留: <tspan fill="#1f2329">[365] 天</tspan></text>
  </g>


  </svg>
