<svg width="1540" height="660" viewBox="0 0 1540 660" xmlns="http://www.w3.org/2000/svg">
  <defs>
    <marker id="arrow-main" viewBox="0 0 10 10" refX="9" refY="5" markerWidth="6" markerHeight="6" orient="auto-start-reverse">
      <path d="M 0 1 L 9 5 L 0 9 z" fill="#8f959e" />
    </marker>
    <marker id="arrow-light" viewBox="0 0 10 10" refX="9" refY="5" markerWidth="6" markerHeight="6" orient="auto-start-reverse">
      <path d="M 0 1 L 9 5 L 0 9 z" fill="#bbbfc4" />
    </marker>
  </defs>

  <rect width="100%" height="100%" fill="#ffffff" />

  <text x="40" y="50" font-size="24" font-weight="bold" fill="#1f2329">信任边界与威胁模型架构图</text>
  <text x="40" y="75" font-size="14" fill="#8f959e">全局跨域数据流转、安全隔离控制及 STRIDE 威胁消减模型</text>

  <g transform="translate(1120, 30)">
    <rect x="0" y="0" width="14" height="14" rx="2" fill="#fee3e2" />
    <text x="22" y="12" font-size="12" fill="#646a73">安全威胁 (Threat)</text>

    <rect x="140" y="0" width="14" height="14" rx="2" fill="#dff5e5" />
    <text x="162" y="12" font-size="12" fill="#646a73">控制措施 (Control)</text>

    <line x1="280" y1="7" x2="310" y2="7" stroke="#d25d5a" stroke-width="2" stroke-dasharray="4,2" />
    <text x="320" y="12" font-size="12" fill="#646a73">信任边界定义</text>
  </g>

  <rect x="40" y="160" width="180" height="360" fill="none" stroke="#d25d5a" stroke-width="2" stroke-dasharray="6,4" />
  <rect x="42" y="162" width="176" height="40" fill="#fee3e2" />
  <text x="130" y="188" text-anchor="middle" font-size="14" font-weight="bold" fill="#d25d5a">不可信域 (Untrusted)</text>

  <rect x="440" y="160" width="180" height="360" fill="none" stroke="#d4b45b" stroke-width="2" stroke-dasharray="6,4" />
  <rect x="442" y="162" width="176" height="40" fill="#fef1ce" />
  <text x="530" y="188" text-anchor="middle" font-size="14" font-weight="bold" fill="#d4b45b">公网入口 (DMZ)</text>

  <rect x="860" y="160" width="180" height="360" fill="none" stroke="#5178c6" stroke-width="2" stroke-dasharray="6,4" />
  <rect x="862" y="162" width="176" height="40" fill="#f0f4fc" />
  <text x="950" y="188" text-anchor="middle" font-size="14" font-weight="bold" fill="#5178c6">应用信任域 (Trusted)</text>

  <rect x="1300" y="160" width="180" height="360" fill="none" stroke="#509863" stroke-width="2" stroke-dasharray="6,4" />
  <rect x="1302" y="162" width="176" height="40" fill="#dff5e5" />
  <text x="1390" y="188" text-anchor="middle" font-size="14" font-weight="bold" fill="#509863">数据核心域 (Secured)</text>


  <line x1="330" y1="130" x2="330" y2="560" stroke="#d25d5a" stroke-width="2" stroke-dasharray="8,4" />
  <rect x="290" y="110" width="80" height="24" rx="12" fill="#fee3e2" />
  <text x="330" y="127" text-anchor="middle" font-size="12" font-weight="bold" fill="#d25d5a">互联网边界</text>

  <line x1="740" y1="130" x2="740" y2="560" stroke="#d4b45b" stroke-width="2" stroke-dasharray="8,4" />
  <rect x="700" y="110" width="80" height="24" rx="12" fill="#fef1ce" />
  <text x="740" y="127" text-anchor="middle" font-size="12" font-weight="bold" fill="#d4b45b">内网隔离界</text>

  <line x1="1170" y1="130" x2="1170" y2="560" stroke="#5178c6" stroke-width="2" stroke-dasharray="8,4" />
  <rect x="1130" y="110" width="80" height="24" rx="12" fill="#f0f4fc" />
  <text x="1170" y="127" text-anchor="middle" font-size="12" font-weight="bold" fill="#5178c6">数据核心界</text>


  <line x1="205" y1="270" x2="455" y2="270" stroke="#8f959e" stroke-width="2" marker-end="url(#arrow-main)" />
  <line x1="205" y1="450" x2="455" y2="450" stroke="#8f959e" stroke-width="2" marker-end="url(#arrow-main)" />

  <line x1="605" y1="270" x2="875" y2="270" stroke="#8f959e" stroke-width="2" marker-end="url(#arrow-main)" />
  <line x1="605" y1="450" x2="875" y2="450" stroke="#8f959e" stroke-width="2" marker-end="url(#arrow-main)" />

  <line x1="1025" y1="270" x2="1315" y2="270" stroke="#8f959e" stroke-width="2" marker-end="url(#arrow-main)" />
  <line x1="1025" y1="450" x2="1315" y2="450" stroke="#8f959e" stroke-width="2" marker-end="url(#arrow-main)" />
  <line x1="1025" y1="360" x2="1315" y2="360" stroke="#8f959e" stroke-width="2" marker-end="url(#arrow-main)" />

  <line x1="950" y1="420" x2="950" y2="378" stroke="#bbbfc4" stroke-width="1.5" stroke-dasharray="4,4" marker-end="url(#arrow-light)" />
  <line x1="950" y1="300" x2="950" y2="342" stroke="#bbbfc4" stroke-width="1.5" stroke-dasharray="4,4" marker-end="url(#arrow-light)" />
  <line x1="1390" y1="420" x2="1390" y2="378" stroke="#bbbfc4" stroke-width="1.5" stroke-dasharray="4,4" marker-end="url(#arrow-light)" />


  <rect x="239" y="242" width="72" height="22" rx="4" fill="#fee3e2" />
  <text x="275" y="257" text-anchor="middle" font-size="12" fill="#d25d5a">身份冒用</text>
  <rect x="349" y="242" width="72" height="22" rx="4" fill="#fee3e2" />
  <text x="385" y="257" text-anchor="middle" font-size="12" fill="#d25d5a">DDoS攻击</text>
  <rect x="239" y="276" width="72" height="22" rx="4" fill="#dff5e5" />
  <text x="275" y="291" text-anchor="middle" font-size="12" fill="#509863">WAF 过滤</text>
  <rect x="349" y="276" width="72" height="22" rx="4" fill="#dff5e5" />
  <text x="385" y="291" text-anchor="middle" font-size="12" fill="#509863">TLS 加密</text>

  <rect x="239" y="422" width="72" height="22" rx="4" fill="#fee3e2" />
  <text x="275" y="437" text-anchor="middle" font-size="12" fill="#d25d5a">重放攻击</text>
  <rect x="349" y="422" width="72" height="22" rx="4" fill="#fee3e2" />
  <text x="385" y="437" text-anchor="middle" font-size="12" fill="#d25d5a">数据泄露</text>
  <rect x="239" y="456" width="72" height="22" rx="4" fill="#dff5e5" />
  <text x="275" y="471" text-anchor="middle" font-size="12" fill="#509863">IP 白名单</text>
  <rect x="349" y="456" width="72" height="22" rx="4" fill="#dff5e5" />
  <text x="385" y="471" text-anchor="middle" font-size="12" fill="#509863">频率限制</text>

  <rect x="644" y="242" width="72" height="22" rx="4" fill="#fee3e2" />
  <text x="680" y="257" text-anchor="middle" font-size="12" fill="#d25d5a">越权访问</text>
  <rect x="764" y="242" width="72" height="22" rx="4" fill="#fee3e2" />
  <text x="800" y="257" text-anchor="middle" font-size="12" fill="#d25d5a">会话劫持</text>
  <rect x="644" y="276" width="72" height="22" rx="4" fill="#dff5e5" />
  <text x="680" y="291" text-anchor="middle" font-size="12" fill="#509863">Token校验</text>
  <rect x="764" y="276" width="72" height="22" rx="4" fill="#dff5e5" />
  <text x="800" y="291" text-anchor="middle" font-size="12" fill="#509863">动态加盐</text>

  <rect x="644" y="422" width="72" height="22" rx="4" fill="#fee3e2" />
  <text x="680" y="437" text-anchor="middle" font-size="12" fill="#d25d5a">接口篡改</text>
  <rect x="764" y="422" width="72" height="22" rx="4" fill="#fee3e2" />
  <text x="800" y="437" text-anchor="middle" font-size="12" fill="#d25d5a">异常报文</text>
  <rect x="644" y="456" width="72" height="22" rx="4" fill="#dff5e5" />
  <text x="680" y="471" text-anchor="middle" font-size="12" fill="#509863">数字签名</text>
  <rect x="764" y="456" width="72" height="22" rx="4" fill="#dff5e5" />
  <text x="800" y="471" text-anchor="middle" font-size="12" fill="#509863">报文校验</text>

  <rect x="1054" y="242" width="72" height="22" rx="4" fill="#fee3e2" />
  <text x="1090" y="257" text-anchor="middle" font-size="12" fill="#d25d5a">内部窃听</text>
  <rect x="1214" y="242" width="72" height="22" rx="4" fill="#fee3e2" />
  <text x="1250" y="257" text-anchor="middle" font-size="12" fill="#d25d5a">凭证拖库</text>
  <rect x="1054" y="276" width="72" height="22" rx="4" fill="#dff5e5" />
  <text x="1090" y="291" text-anchor="middle" font-size="12" fill="#509863">VPC 隔离</text>
  <rect x="1214" y="276" width="72" height="22" rx="4" fill="#dff5e5" />
  <text x="1250" y="291" text-anchor="middle" font-size="12" fill="#509863">强散列存</text>

  <rect x="1054" y="332" width="72" height="22" rx="4" fill="#fee3e2" />
  <text x="1090" y="347" text-anchor="middle" font-size="12" fill="#d25d5a">事件丢弃</text>
  <rect x="1214" y="332" width="72" height="22" rx="4" fill="#fee3e2" />
  <text x="1250" y="347" text-anchor="middle" font-size="12" fill="#d25d5a">审计篡改</text>
  <rect x="1054" y="366" width="72" height="22" rx="4" fill="#dff5e5" />
  <text x="1090" y="381" text-anchor="middle" font-size="12" fill="#509863">确认机制</text>
  <rect x="1214" y="366" width="72" height="22" rx="4" fill="#dff5e5" />
  <text x="1250" y="381" text-anchor="middle" font-size="12" fill="#509863">签名防伪</text>

  <rect x="1054" y="422" width="72" height="22" rx="4" fill="#fee3e2" />
  <text x="1090" y="437" text-anchor="middle" font-size="12" fill="#d25d5a">SQL 注入</text>
  <rect x="1214" y="422" width="72" height="22" rx="4" fill="#fee3e2" />
  <text x="1250" y="437" text-anchor="middle" font-size="12" fill="#d25d5a">核心泄露</text>
  <rect x="1054" y="456" width="72" height="22" rx="4" fill="#dff5e5" />
  <text x="1090" y="471" text-anchor="middle" font-size="12" fill="#509863">参数绑定</text>
  <rect x="1214" y="456" width="72" height="22" rx="4" fill="#dff5e5" />
  <text x="1250" y="471" text-anchor="middle" font-size="12" fill="#509863">存储加密</text>


  <rect x="55" y="240" width="150" height="60" rx="6" fill="#ffffff" stroke="#d25d5a" stroke-width="1.5" />
  <circle cx="75" cy="270" r="4" fill="#d25d5a" />
  <text x="87" y="275" font-size="14" font-weight="bold" fill="#1f2329">外部终端应用</text>

  <rect x="55" y="420" width="150" height="60" rx="6" fill="#ffffff" stroke="#d25d5a" stroke-width="1.5" />
  <circle cx="75" cy="450" r="4" fill="#d25d5a" />
  <text x="87" y="455" font-size="14" font-weight="bold" fill="#1f2329">第三方接入方</text>

  <rect x="455" y="240" width="150" height="60" rx="6" fill="#ffffff" stroke="#d4b45b" stroke-width="1.5" />
  <circle cx="475" cy="270" r="4" fill="#d4b45b" />
  <text x="487" y="275" font-size="14" font-weight="bold" fill="#1f2329">前端接入网关</text>

  <rect x="455" y="420" width="150" height="60" rx="6" fill="#ffffff" stroke="#d4b45b" stroke-width="1.5" />
  <circle cx="475" cy="450" r="4" fill="#d4b45b" />
  <text x="487" y="455" font-size="14" font-weight="bold" fill="#1f2329">开放 API 网关</text>

  <rect x="875" y="240" width="150" height="60" rx="6" fill="#ffffff" stroke="#5178c6" stroke-width="1.5" />
  <circle cx="895" cy="270" r="4" fill="#5178c6" />
  <text x="907" y="275" font-size="14" font-weight="bold" fill="#1f2329">认证与会话服务</text>

  <rect x="875" y="342" width="150" height="36" rx="4" fill="#ffffff" stroke="#5178c6" stroke-width="1.5" />
  <circle cx="895" cy="360" r="4" fill="#5178c6" />
  <text x="907" y="365" font-size="13" font-weight="bold" fill="#1f2329">审计与风控引擎</text>

  <rect x="875" y="420" width="150" height="60" rx="6" fill="#ffffff" stroke="#5178c6" stroke-width="1.5" />
  <circle cx="895" cy="450" r="4" fill="#5178c6" />
  <text x="907" y="455" font-size="14" font-weight="bold" fill="#1f2329">业务应用微服务</text>

  <rect x="1315" y="240" width="150" height="60" rx="6" fill="#ffffff" stroke="#509863" stroke-width="1.5" />
  <circle cx="1335" cy="270" r="4" fill="#509863" />
  <text x="1347" y="275" font-size="14" font-weight="bold" fill="#1f2329">核心缓存与配置</text>

  <rect x="1315" y="342" width="150" height="36" rx="4" fill="#ffffff" stroke="#509863" stroke-width="1.5" />
  <circle cx="1335" cy="360" r="4" fill="#509863" />
  <text x="1347" y="365" font-size="13" font-weight="bold" fill="#1f2329">日志与 MQ 总线</text>

  <rect x="1315" y="420" width="150" height="60" rx="6" fill="#ffffff" stroke="#509863" stroke-width="1.5" />
  <circle cx="1335" cy="450" r="4" fill="#509863" />
  <text x="1347" y="455" font-size="14" font-weight="bold" fill="#1f2329">核心业务数据库</text>

  </svg>
