<svg width="1340" height="560" viewBox="0 0 1340 560" xmlns="http://www.w3.org/2000/svg">
  <defs>
    <marker id="arrow-main" viewBox="0 0 10 10" refX="8" refY="5" markerWidth="6" markerHeight="6" orient="auto-start-reverse">
      <path d="M 1 1 L 9 5 L 1 9 z" fill="#bbbfc4" />
    </marker>
    <marker id="arrow-alert" viewBox="0 0 10 10" refX="8" refY="5" markerWidth="6" markerHeight="6" orient="auto-start-reverse">
      <path d="M 1 1 L 9 5 L 1 9 z" fill="#d25d5a" />
    </marker>
    <marker id="arrow-feedback" viewBox="0 0 10 10" refX="8" refY="5" markerWidth="6" markerHeight="6" orient="auto-start-reverse">
      <path d="M 1 1 L 9 5 L 1 9 z" fill="#d4b45b" />
    </marker>
  </defs>

  <g id="zones">
    <rect x="40" y="40" width="1260" height="120" rx="8" fill="#ffffff" stroke="#bbbfc4" stroke-dasharray="4 4" />
    <text x="60" y="70" font-size="14" font-weight="bold" fill="#8f959e">治理控制面 (Governance &amp; Control)</text>

    <text x="60" y="210" font-size="14" font-weight="bold" fill="#8f959e">AI 核心工作流 (Core Workflow)</text>

    <rect x="40" y="370" width="1260" height="150" rx="8" fill="#ffffff" stroke="#bbbfc4" stroke-dasharray="4 4" />
    <text x="60" y="400" font-size="14" font-weight="bold" fill="#8f959e">观测与反馈闭环 (Observability &amp; Feedback)</text>
  </g>

  <g id="lines-main" stroke="#bbbfc4" stroke-width="1.5" fill="none">
    <line x1="200" y1="260" x2="242" y2="260" marker-end="url(#arrow-main)" />
    <line x1="390" y1="260" x2="422" y2="260" marker-end="url(#arrow-main)" />
    <line x1="570" y1="260" x2="602" y2="260" marker-end="url(#arrow-main)" />
    <line x1="750" y1="260" x2="782" y2="260" marker-end="url(#arrow-main)" />
    <line x1="930" y1="260" x2="962" y2="260" marker-end="url(#arrow-main)" />
    <line x1="1110" y1="260" x2="1142" y2="260" marker-end="url(#arrow-main)" />
  </g>

  <g id="lines-alert" stroke="#d25d5a" stroke-width="1.5" stroke-dasharray="4 2" fill="none">
    <polyline points="860,138 860,190 1040,190 1040,222" marker-end="url(#arrow-alert)" />
    <rect x="940" y="180" width="112" height="20" rx="10" fill="#ffffff" />
    <text x="996" y="194" font-size="12" fill="#d25d5a" text-anchor="middle">高风险进入审批</text>
  </g>

  <g id="lines-feedback" stroke="#d4b45b" stroke-width="1.5" fill="none">
    <line x1="1220" y1="290" x2="1220" y2="412" marker-end="url(#arrow-feedback)" />
    <circle cx="1220" cy="350" r="3" fill="#d4b45b" />
    <polyline points="1220,350 1040,350 1040,412" marker-end="url(#arrow-feedback)" />

    <line x1="980" y1="442" x2="928" y2="442" marker-end="url(#arrow-feedback)" />
    <line x1="800" y1="442" x2="748" y2="442" marker-end="url(#arrow-feedback)" />
    <line x1="620" y1="442" x2="388" y2="442" marker-end="url(#arrow-feedback)" />

    <polyline points="1160,442 1130,442 1130,480 680,480 680,470" marker-end="url(#arrow-feedback)" stroke-dasharray="2 2" />

    <line x1="320" y1="420" x2="320" y2="298" marker-end="url(#arrow-feedback)" />
  </g>

  <g id="cards-governance">
    <rect x="260" y="90" width="120" height="48" rx="6" fill="#eae2fe" stroke="#8569cb" stroke-width="1.5" />
    <text x="320" y="112" font-size="14" font-weight="bold" fill="#1f2329" text-anchor="middle">Owner</text>
    <text x="320" y="128" font-size="12" fill="#646a73" text-anchor="middle">责任归属</text>

    <rect x="440" y="90" width="120" height="48" rx="6" fill="#eae2fe" stroke="#8569cb" stroke-width="1.5" />
    <text x="500" y="112" font-size="14" font-weight="bold" fill="#1f2329" text-anchor="middle">权限策略</text>
    <text x="500" y="128" font-size="12" fill="#646a73" text-anchor="middle">细粒度控制</text>

    <rect x="800" y="90" width="120" height="48" rx="6" fill="#eae2fe" stroke="#8569cb" stroke-width="1.5" />
    <text x="860" y="112" font-size="14" font-weight="bold" fill="#1f2329" text-anchor="middle">风险分级</text>
    <text x="860" y="128" font-size="12" fill="#646a73" text-anchor="middle">敏感度评估</text>

    <rect x="1160" y="90" width="120" height="48" rx="6" fill="#eae2fe" stroke="#8569cb" stroke-width="1.5" />
    <text x="1220" y="112" font-size="14" font-weight="bold" fill="#1f2329" text-anchor="middle">审计</text>
    <text x="1220" y="128" font-size="12" fill="#646a73" text-anchor="middle">行为追溯</text>
  </g>

  <g id="cards-main">
    <rect x="60" y="230" width="140" height="60" rx="6" fill="#f0f4fc" stroke="#5178c6" stroke-width="1.5" />
    <text x="130" y="265" font-size="14" font-weight="bold" fill="#1f2329" text-anchor="middle">场景定义</text>

    <rect x="250" y="230" width="140" height="60" rx="6" fill="#f0f4fc" stroke="#5178c6" stroke-width="1.5" />
    <text x="320" y="265" font-size="14" font-weight="bold" fill="#1f2329" text-anchor="middle">模板 / Skill</text>

    <rect x="430" y="230" width="140" height="60" rx="6" fill="#f0f4fc" stroke="#5178c6" stroke-width="1.5" />
    <text x="500" y="265" font-size="14" font-weight="bold" fill="#1f2329" text-anchor="middle">Flow 编排</text>

    <rect x="610" y="230" width="140" height="60" rx="6" fill="#f0f4fc" stroke="#5178c6" stroke-width="1.5" />
    <text x="680" y="265" font-size="14" font-weight="bold" fill="#1f2329" text-anchor="middle">模型与工具执行</text>

    <rect x="790" y="230" width="140" height="60" rx="6" fill="#f0f4fc" stroke="#5178c6" stroke-width="1.5" />
    <text x="860" y="265" font-size="14" font-weight="bold" fill="#1f2329" text-anchor="middle">离线评测</text>

    <rect x="970" y="230" width="140" height="60" rx="6" fill="#fee3e2" stroke="#d25d5a" stroke-width="2" />
    <text x="1040" y="265" font-size="14" font-weight="bold" fill="#1f2329" text-anchor="middle">审批发布</text>

    <rect x="1150" y="230" width="140" height="60" rx="6" fill="#dff5e5" stroke="#509863" stroke-width="1.5" />
    <text x="1220" y="265" font-size="14" font-weight="bold" fill="#1f2329" text-anchor="middle">在线运行</text>
  </g>

  <g id="cards-feedback">
    <rect x="260" y="420" width="120" height="44" rx="6" fill="#fef1ce" stroke="#d4b45b" stroke-width="1.5" />
    <text x="320" y="446" font-size="14" font-weight="bold" fill="#1f2329" text-anchor="middle">模板改进</text>

    <rect x="620" y="420" width="120" height="44" rx="6" fill="#fef1ce" stroke="#d4b45b" stroke-width="1.5" />
    <text x="680" y="446" font-size="14" font-weight="bold" fill="#1f2329" text-anchor="middle">失败样本</text>

    <rect x="800" y="420" width="120" height="44" rx="6" fill="#fef1ce" stroke="#d4b45b" stroke-width="1.5" />
    <text x="860" y="446" font-size="14" font-weight="bold" fill="#1f2329" text-anchor="middle">回滚</text>

    <rect x="980" y="420" width="120" height="44" rx="6" fill="#fef1ce" stroke="#d4b45b" stroke-width="1.5" />
    <text x="1040" y="446" font-size="14" font-weight="bold" fill="#1f2329" text-anchor="middle">线上指标</text>

    <rect x="1160" y="420" width="120" height="44" rx="6" fill="#fef1ce" stroke="#d4b45b" stroke-width="1.5" />
    <text x="1220" y="446" font-size="14" font-weight="bold" fill="#1f2329" text-anchor="middle">Trace</text>
  </g>

  </svg>
