<svg xmlns="http://www.w3.org/2000/svg" width="1010" height="740" viewBox="0 0 1010 740">
  <defs>
    <marker id="arrow" viewBox="0 0 10 10" refX="8" refY="5" markerWidth="6" markerHeight="6" orient="auto-start-reverse">
      <path d="M 0 0 L 10 5 L 0 10 z" fill="#646a73" />
    </marker>
    <marker id="arrow-monitor" viewBox="0 0 10 10" refX="8" refY="5" markerWidth="6" markerHeight="6" orient="auto">
      <path d="M 0 0 L 10 5 L 0 10 z" fill="#bbbfc4" />
    </marker>
  </defs>

  <rect x="30" y="40" width="670" height="130" rx="12" fill="none" stroke="#bbbfc4" stroke-width="1.5" stroke-dasharray="6 6" />
  <text x="50" y="65" font-size="14" font-weight="bold" fill="#646a73">公网边缘区 (Public Edge)</text>

  <rect x="30" y="200" width="670" height="190" rx="12" fill="none" stroke="#bbbfc4" stroke-width="1.5" stroke-dasharray="6 6" />
  <text x="50" y="225" font-size="14" font-weight="bold" fill="#646a73">应用运行区 (App Runtime)</text>

  <rect x="30" y="530" width="670" height="150" rx="12" fill="none" stroke="#bbbfc4" stroke-width="1.5" stroke-dasharray="6 6" />
  <text x="50" y="555" font-size="14" font-weight="bold" fill="#646a73">数据区 (Data Layer)</text>

  <rect x="730" y="40" width="250" height="640" rx="12" fill="#fcfcfc" stroke="#bbbfc4" stroke-width="1.5" stroke-dasharray="6 6" />
  <text x="750" y="65" font-size="14" font-weight="bold" fill="#646a73">管理区 (Management)</text>

  <rect x="250" y="15" width="80" height="24" rx="12" fill="#eff0f1" stroke="#dee0e3" />
  <text x="290" y="31" font-size="12" font-weight="bold" fill="#646a73" text-anchor="middle">Internet</text>

  <line x1="700" y1="115" x2="715" y2="115" stroke="#bbbfc4" stroke-width="1.5" stroke-dasharray="4 4" />
  <line x1="700" y1="325" x2="715" y2="325" stroke="#bbbfc4" stroke-width="1.5" stroke-dasharray="4 4" />
  <line x1="700" y1="615" x2="715" y2="615" stroke="#bbbfc4" stroke-width="1.5" stroke-dasharray="4 4" />
  <text x="710" y="110" font-size="10" fill="#8f959e" text-anchor="end">状态与流量上报</text>
  <text x="710" y="320" font-size="10" fill="#8f959e" text-anchor="end">指标与日志收集</text>
  <text x="710" y="610" font-size="10" fill="#8f959e" text-anchor="end">遥测数据上报</text>

  <line x1="715" y1="115" x2="715" y2="615" stroke="#bbbfc4" stroke-width="1.5" stroke-dasharray="4 4" />
  <line x1="715" y1="365" x2="755" y2="365" stroke="#bbbfc4" stroke-width="1.5" stroke-dasharray="4 4" marker-end="url(#arrow-monitor)" />

  <line x1="290" y1="39" x2="290" y2="75" stroke="#646a73" stroke-width="2" marker-end="url(#arrow)" />
  <text x="300" y="62" font-size="12" fill="#646a73">TCP 80 / 443</text>

  <polyline points="290,150 290,195 180,195 180,285" fill="none" stroke="#646a73" stroke-width="1.5" marker-end="url(#arrow)" />
  <polyline points="290,195 340,195 340,285" fill="none" stroke="#646a73" stroke-width="1.5" marker-end="url(#arrow)" />
  <text x="300" y="188" font-size="11" fill="#646a73">HTTP 流量分发</text>

  <line x1="120" y1="420" x2="445" y2="420" stroke="#646a73" stroke-width="1.5" />
  <line x1="180" y1="360" x2="180" y2="420" stroke="#646a73" stroke-width="1.5" />
  <line x1="340" y1="360" x2="340" y2="420" stroke="#646a73" stroke-width="1.5" />

  <line x1="120" y1="420" x2="120" y2="565" stroke="#646a73" stroke-width="1.5" marker-end="url(#arrow)" />
  <line x1="275" y1="420" x2="275" y2="565" stroke="#646a73" stroke-width="1.5" marker-end="url(#arrow)" />
  <line x1="445" y1="420" x2="445" y2="565" stroke="#646a73" stroke-width="1.5" marker-end="url(#arrow)" />
  <text x="126" y="530" font-size="11" fill="#646a73">TCP / 6379</text>
  <text x="210" y="530" font-size="11" fill="#646a73">TCP / 3306</text>
  <text x="451" y="445" font-size="11" fill="#646a73">TCP / AMQP</text>

  <line x1="295" y1="460" x2="605" y2="460" stroke="#646a73" stroke-width="1.5" />
  <line x1="560" y1="360" x2="560" y2="460" stroke="#646a73" stroke-width="1.5" />

  <line x1="295" y1="460" x2="295" y2="565" stroke="#646a73" stroke-width="1.5" marker-end="url(#arrow)" />
  <line x1="605" y1="460" x2="605" y2="565" stroke="#646a73" stroke-width="1.5" marker-end="url(#arrow)" />
  <text x="301" y="550" font-size="11" fill="#646a73">持久化与归档</text>
  <text x="611" y="530" font-size="11" fill="#646a73">HTTP / S3 API</text>

  <line x1="430" y1="500" x2="540" y2="500" stroke="#646a73" stroke-width="1.5" />
  <line x1="430" y1="570" x2="430" y2="500" stroke="#646a73" stroke-width="1.5" />
  <line x1="540" y1="500" x2="540" y2="365" stroke="#646a73" stroke-width="1.5" marker-end="url(#arrow)" />
  <text x="546" y="475" font-size="11" fill="#646a73">拉取消费 / 事件订阅</text>

  <g transform="translate(190, 80)">
    <rect width="200" height="70" rx="8" fill="#f0f4fc" stroke="#5178c6" stroke-width="1.5" />
    <rect x="150" y="-10" width="44" height="20" rx="4" fill="#5178c6" />
    <text x="172" y="3" font-size="10" fill="#ffffff" text-anchor="middle" font-weight="bold">无状态</text>
    <text x="100" y="30" font-size="14" font-weight="bold" fill="#1f2329" text-anchor="middle">负载入口 (Load Balancer)</text>
    <text x="100" y="50" font-size="12" fill="#646a73" text-anchor="middle">SSL/TLS 卸载 · 路由转发</text>
  </g>

  <rect x="95" y="250" width="330" height="130" rx="8" fill="#ffffff" stroke="#bbbfc4" stroke-width="1.5" stroke-dasharray="4 4" />
  <rect x="95" y="250" width="135" height="24" rx="4" fill="#f5f5f5" stroke="#bbbfc4" stroke-width="1" />
  <text x="162" y="266" font-size="12" font-weight="bold" fill="#646a73" text-anchor="middle">扩缩容单元 (ASG)</text>

  <g transform="translate(115, 290)">
    <rect width="130" height="70" rx="6" fill="#f0f4fc" stroke="#5178c6" stroke-width="1.5" />
    <rect x="80" y="-10" width="44" height="20" rx="4" fill="#5178c6" />
    <text x="102" y="3" font-size="10" fill="#ffffff" text-anchor="middle" font-weight="bold">无状态</text>
    <text x="65" y="30" font-size="14" font-weight="bold" fill="#1f2329" text-anchor="middle">应用实例 1</text>
    <text x="65" y="50" font-size="11" fill="#646a73" text-anchor="middle">Web API · 业务逻辑</text>
  </g>

  <g transform="translate(275, 290)">
    <rect width="130" height="70" rx="6" fill="#f0f4fc" stroke="#5178c6" stroke-width="1.5" />
    <rect x="80" y="-10" width="44" height="20" rx="4" fill="#5178c6" />
    <text x="102" y="3" font-size="10" fill="#ffffff" text-anchor="middle" font-weight="bold">无状态</text>
    <text x="65" y="30" font-size="14" font-weight="bold" fill="#1f2329" text-anchor="middle">应用实例 2</text>
    <text x="65" y="50" font-size="11" fill="#646a73" text-anchor="middle">Web API · 业务逻辑</text>
  </g>

  <g transform="translate(490, 290)">
    <rect width="140" height="70" rx="6" fill="#f0f4fc" stroke="#5178c6" stroke-width="1.5" />
    <rect x="90" y="-10" width="44" height="20" rx="4" fill="#5178c6" />
    <text x="112" y="3" font-size="10" fill="#ffffff" text-anchor="middle" font-weight="bold">无状态</text>
    <text x="70" y="30" font-size="14" font-weight="bold" fill="#1f2329" text-anchor="middle">后台任务集群</text>
    <text x="70" y="50" font-size="11" fill="#646a73" text-anchor="middle">异步调度 · 批处理</text>
  </g>

  <g transform="translate(55, 570)">
    <rect width="130" height="90" rx="8" fill="#eae2fe" stroke="#8569cb" stroke-width="1.5" />
    <rect x="80" y="-10" width="44" height="20" rx="4" fill="#8569cb" />
    <text x="102" y="3" font-size="10" fill="#ffffff" text-anchor="middle" font-weight="bold">有状态</text>
    <path d="M 65 16 C 75 16, 80 18, 80 21 C 80 24, 75 26, 65 26 C 55 26, 50 24, 50 21 C 50 18, 55 16, 65 16 Z" fill="none" stroke="#8569cb" stroke-width="1.5"/>
    <path d="M 50 21 L 50 31 C 50 34, 55 36, 65 36 C 75 36, 80 34, 80 31 L 80 21" fill="none" stroke="#8569cb" stroke-width="1.5"/>
    <text x="65" y="58" font-size="14" font-weight="bold" fill="#1f2329" text-anchor="middle">分布式缓存</text>
    <text x="65" y="78" font-size="11" fill="#646a73" text-anchor="middle">会话状态 · 查询加速</text>
  </g>

  <g transform="translate(220, 570)">
    <rect width="130" height="90" rx="8" fill="#eae2fe" stroke="#8569cb" stroke-width="1.5" />
    <rect x="80" y="-10" width="44" height="20" rx="4" fill="#8569cb" />
    <text x="102" y="3" font-size="10" fill="#ffffff" text-anchor="middle" font-weight="bold">有状态</text>
    <path d="M 65 16 C 75 16, 80 18, 80 21 C 80 24, 75 26, 65 26 C 55 26, 50 24, 50 21 C 50 18, 55 16, 65 16 Z" fill="none" stroke="#8569cb" stroke-width="1.5"/>
    <path d="M 50 21 L 50 31 C 50 34, 55 36, 65 36 C 75 36, 80 34, 80 31 L 80 21" fill="none" stroke="#8569cb" stroke-width="1.5"/>
    <text x="65" y="58" font-size="14" font-weight="bold" fill="#1f2329" text-anchor="middle">主数据库</text>
    <text x="65" y="78" font-size="11" fill="#646a73" text-anchor="middle">核心关系型存储</text>
  </g>

  <g transform="translate(380, 570)">
    <rect width="130" height="90" rx="8" fill="#eae2fe" stroke="#8569cb" stroke-width="1.5" />
    <rect x="80" y="-10" width="44" height="20" rx="4" fill="#8569cb" />
    <text x="102" y="3" font-size="10" fill="#ffffff" text-anchor="middle" font-weight="bold">有状态</text>
    <path d="M 52 18 L 78 18 L 78 33 L 52 33 Z" fill="none" stroke="#8569cb" stroke-width="1.5" />
    <path d="M 57 18 L 57 33 M 63 18 L 63 33 M 69 18 L 69 33" stroke="#8569cb" stroke-width="1.5" />
    <text x="65" y="58" font-size="14" font-weight="bold" fill="#1f2329" text-anchor="middle">消息系统</text>
    <text x="65" y="78" font-size="11" fill="#646a73" text-anchor="middle">削峰填谷 · 异步解耦</text>
  </g>

  <g transform="translate(540, 570)">
    <rect width="130" height="90" rx="8" fill="#eae2fe" stroke="#8569cb" stroke-width="1.5" />
    <rect x="80" y="-10" width="44" height="20" rx="4" fill="#8569cb" />
    <text x="102" y="3" font-size="10" fill="#ffffff" text-anchor="middle" font-weight="bold">有状态</text>
    <path d="M 50 33 L 80 33 L 75 18 L 55 18 Z" fill="none" stroke="#8569cb" stroke-width="1.5" />
    <path d="M 55 18 L 55 16 C 55 14 75 14 75 16 L 75 18" fill="none" stroke="#8569cb" stroke-width="1.5" />
    <text x="65" y="58" font-size="14" font-weight="bold" fill="#1f2329" text-anchor="middle">对象存储</text>
    <text x="65" y="78" font-size="11" fill="#646a73" text-anchor="middle">附件 · 非结构化数据</text>
  </g>

  <g transform="translate(755, 275)">
    <rect width="200" height="180" rx="8" fill="#f0f4fc" stroke="#5178c6" stroke-width="1.5" />
    <text x="100" y="35" font-size="16" font-weight="bold" fill="#1f2329" text-anchor="middle">监控与控制面</text>
    <text x="100" y="55" font-size="11" fill="#5178c6" text-anchor="middle">Control Plane &amp; Monitor</text>

    <rect x="20" y="75" width="160" height="26" rx="4" fill="#ffffff" stroke="#dee0e3" />
    <text x="100" y="92" font-size="12" fill="#646a73" text-anchor="middle">日志聚合分析 (Logging)</text>

    <rect x="20" y="107" width="160" height="26" rx="4" fill="#ffffff" stroke="#dee0e3" />
    <text x="100" y="124" font-size="12" fill="#646a73" text-anchor="middle">全链路追踪 (Tracing)</text>

    <rect x="20" y="139" width="160" height="26" rx="4" fill="#ffffff" stroke="#dee0e3" />
    <text x="100" y="156" font-size="12" fill="#646a73" text-anchor="middle">指标监控预警 (Metrics)</text>
  </g>

  </svg>
